<svg width="32" height="44" viewBox="0 0 32 44" fill="none" xmlns="http://www.w3.org/2000/svg">
<path d="M16 0C8.13498 0 0 6.00756 0 16.0619C0 25.2466 14.2756 42.7423 14.8821 43.4752C15.1591 43.8074 15.5682 44 16 44C16.4318 44 16.8409 43.8074 17.1179 43.4752C17.7244 42.7423 32 25.2466 32 16.0619C32 7.20539 24.8224 0 16 0ZM16 26.2832C10.3863 26.2832 5.81818 21.6974 5.81818 16.0619C5.81818 10.4265 10.3863 5.84071 16 5.84071C21.6137 5.84071 26.1818 10.4265 26.1818 16.0619C26.1818 21.6974 21.6137 26.2832 16 26.2832Z" fill="#FF4500"/>
</svg>
