<svg width="50" height="41" viewBox="0 0 50 41" fill="none" xmlns="http://www.w3.org/2000/svg">
<path d="M26.2785 15.5621C11.4013 23.2291 21.2968 43.8 39.8575 38.4298C41.5872 39.1016 43.128 40.1904 44.8043 40.9998C44.3708 39.5412 43.9086 38.099 43.4156 36.663C49.1676 32.5644 50.429 26.7648 48.3028 21.9986C44.983 14.4445 34.3828 11.3505 26.2785 15.5621ZM31.4759 23.0771C31.0466 24.4228 29.1012 24.8254 28.1582 23.8023C27.1187 22.8552 27.5234 20.8768 28.8875 20.4536C30.3954 19.8168 32.1374 21.5651 31.4759 23.0771ZM41.2955 23.2702H41.3243C40.7963 24.4762 38.9803 24.7597 38.0887 23.8249C37.6594 23.4305 37.5341 22.8368 37.3821 22.319C37.5957 21.374 38.2449 20.3941 39.2926 20.3489C40.7409 20.1475 42.0371 21.9431 41.2955 23.2702Z" fill="#FF4500"/>
<path d="M35.6053 12.8392C34.7146 8.45127 31.6504 4.74487 27.7935 2.60617H27.8487V2.60412C14.1617 -5.14432 -2.8795 5.66379 0.413528 18.41C1.29807 22.1922 3.9088 25.3623 7.07722 27.4785C6.46437 29.2243 5.88217 30.97 5.33061 32.7281C7.32236 31.6802 9.31411 30.5853 11.3079 29.521C13.698 30.2926 16.2413 30.6692 18.7846 30.5853C15.6428 21.5557 23.7017 11.9898 35.6053 12.8392ZM23.191 7.59783C24.7946 6.95111 26.6904 8.30391 26.5637 10.0333L26.5678 10.0578C26.5841 12.0328 23.9632 13.2649 22.4924 11.9264C20.9664 10.8253 21.3995 8.15042 23.191 7.59783ZM14.1924 10.5593C13.841 12.2743 11.5551 13.1032 10.217 11.951C8.66654 10.8519 9.10166 8.1279 10.9218 7.57327C12.7052 6.88152 14.7317 8.703 14.1924 10.5593Z" fill="#FF4500"/>
</svg>
