<svg width="0" height="0" class="hidden">
  <symbol viewBox="0 0 26 19" fill="none" xmlns="http://www.w3.org/2000/svg" id="convert">
    <path d="M12.248 12.758c.245.152.522.213.767.213.246 0 .522-.06.768-.213L26 5.358v9.836c0 2.1-1.719 3.806-3.837 3.806H3.837C1.72 19 0 17.295 0 15.194V5.359l12.248 7.399z" fill="#FF4500"></path>
    <path d="M3.837 0h18.326a3.807 3.807 0 0 1 3.714 2.984l-12.892 7.795L.123 2.984A3.807 3.807 0 0 1 3.837 0z" fill="#FF4500"></path>
  </symbol>
  <symbol viewBox="0 0 26 19" fill="none" xmlns="http://www.w3.org/2000/svg" id="convert_hover">
    <path d="M12.248 12.758c.245.152.522.213.767.213.246 0 .522-.06.768-.213L26 5.358v9.836c0 2.1-1.719 3.806-3.837 3.806H3.837C1.72 19 0 17.295 0 15.194V5.359l12.248 7.399z" fill="#D03800"></path>
    <path d="M3.837 0h18.326a3.807 3.807 0 0 1 3.714 2.984l-12.892 7.795L.123 2.984A3.807 3.807 0 0 1 3.837 0z" fill="#D03800"></path>
  </symbol>
</svg>